<svg xmlns="http://www.w3.org/2000/svg" version="1.1" xmlns:xlink="http://www.w3.org/1999/xlink" xmlns:svgjs="http://svgjs.dev/svgjs" viewBox="0 0 800 800"><defs><linearGradient x1="50%" y1="0%" x2="50%" y2="100%" id="ffflurry-grad" gradientTransform="rotate(270)"><stop stop-color="#0E2B44" stop-opacity="1" offset="0%"></stop><stop stop-color="#21649700" stop-opacity="1" offset="45%"></stop><stop stop-color="#0E2B44" stop-opacity="1" offset="100%"></stop></linearGradient></defs><rect width="100%" height="100%" fill="#0e2b44"></rect><g fill="url(#ffflurry-grad)"><rect width="67" height="2" x="62.5" y="243" rx="1" transform="rotate(45, 96, 244)" opacity="0.50"></rect><rect width="550" height="2" x="78" y="164" rx="1" transform="rotate(45, 353, 165)" opacity="0.89"></rect><rect width="377" height="2" x="308.5" y="301" rx="1" transform="rotate(45, 497, 302)" opacity="0.69"></rect><rect width="201" height="2" x="666.5" y="208" rx="1" transform="rotate(45, 767, 209)" opacity="0.63"></rect><rect width="265" height="2" x="503.5" y="105" rx="1" transform="rotate(45, 636, 106)" opacity="0.58"></rect><rect width="114" height="2" x="482" y="476" rx="1" transform="rotate(45, 539, 477)" opacity="0.29"></rect><rect width="198" height="2" x="341" y="272" rx="1" transform="rotate(45, 440, 273)" opacity="0.54"></rect><rect width="172" height="2" x="153" y="570" rx="1" transform="rotate(45, 239, 571)" opacity="0.44"></rect><rect width="35" height="2" x="423.5" y="333" rx="1" transform="rotate(45, 441, 334)" opacity="0.30"></rect><rect width="524" height="2" x="224" y="400" rx="1" transform="rotate(45, 486, 401)" opacity="0.71"></rect><rect width="571" height="2" x="300.5" y="534" rx="1" transform="rotate(45, 586, 535)" opacity="0.81"></rect><rect width="162" height="2" x="-27" y="762" rx="1" transform="rotate(45, 54, 763)" opacity="0.95"></rect><rect width="107" height="2" x="679.5" y="64" rx="1" transform="rotate(45, 733, 65)" opacity="0.95"></rect><rect width="689" height="2" x="-197.5" y="614" rx="1" transform="rotate(45, 147, 615)" opacity="0.12"></rect><rect width="491" height="2" x="-217.5" y="175" rx="1" transform="rotate(45, 28, 176)" opacity="0.16"></rect><rect width="533" height="2" x="414.5" y="454" rx="1" transform="rotate(45, 681, 455)" opacity="0.34"></rect><rect width="204" height="2" x="24" y="421" rx="1" transform="rotate(45, 126, 422)" opacity="0.57"></rect><rect width="585" height="2" x="128.5" y="148" rx="1" transform="rotate(45, 421, 149)" opacity="0.33"></rect><rect width="307" height="2" x="542.5" y="108" rx="1" transform="rotate(45, 696, 109)" opacity="0.40"></rect><rect width="332" height="2" x="1" y="191" rx="1" transform="rotate(45, 167, 192)" opacity="0.16"></rect><rect width="240" height="2" x="293" y="567" rx="1" transform="rotate(45, 413, 568)" opacity="0.66"></rect><rect width="319" height="2" x="551.5" y="254" rx="1" transform="rotate(45, 711, 255)" opacity="0.24"></rect><rect width="567" height="2" x="-248.5" y="670" rx="1" transform="rotate(45, 35, 671)" opacity="0.26"></rect><rect width="244" height="2" x="651" y="631" rx="1" transform="rotate(45, 773, 632)" opacity="0.92"></rect><rect width="326" height="2" x="342" y="600" rx="1" transform="rotate(45, 505, 601)" opacity="0.64"></rect><rect width="54" height="2" x="530" y="234" rx="1" transform="rotate(45, 557, 235)" opacity="0.91"></rect><rect width="214" height="2" x="271" y="322" rx="1" transform="rotate(45, 378, 323)" opacity="0.90"></rect><rect width="451" height="2" x="451.5" y="39" rx="1" transform="rotate(45, 677, 40)" opacity="0.23"></rect><rect width="387" height="2" x="476.5" y="215" rx="1" transform="rotate(45, 670, 216)" opacity="0.13"></rect><rect width="507" height="2" x="385.5" y="700" rx="1" transform="rotate(45, 639, 701)" opacity="0.29"></rect><rect width="484" height="2" x="-198" y="409" rx="1" transform="rotate(45, 44, 410)" opacity="0.80"></rect><rect width="175" height="2" x="29.5" y="694" rx="1" transform="rotate(45, 117, 695)" opacity="0.46"></rect><rect width="625" height="2" x="-178.5" y="532" rx="1" transform="rotate(45, 134, 533)" opacity="0.57"></rect><rect width="488" height="2" x="66" y="677" rx="1" transform="rotate(45, 310, 678)" opacity="0.80"></rect><rect width="566" height="2" x="357" y="402" rx="1" transform="rotate(45, 640, 403)" opacity="0.69"></rect><rect width="482" height="2" x="527" y="560" rx="1" transform="rotate(45, 768, 561)" opacity="0.65"></rect><rect width="255" height="2" x="204.5" y="217" rx="1" transform="rotate(45, 332, 218)" opacity="0.79"></rect><rect width="649" height="2" x="17.5" y="426" rx="1" transform="rotate(45, 342, 427)" opacity="0.82"></rect><rect width="53" height="2" x="705.5" y="454" rx="1" transform="rotate(45, 732, 455)" opacity="0.67"></rect><rect width="59" height="2" x="170.5" y="672" rx="1" transform="rotate(45, 200, 673)" opacity="0.90"></rect><rect width="344" height="2" x="549" y="521" rx="1" transform="rotate(45, 721, 522)" opacity="0.73"></rect><rect width="272" height="2" x="603" y="402" rx="1" transform="rotate(45, 739, 403)" opacity="0.51"></rect><rect width="625" height="2" x="396.5" y="601" rx="1" transform="rotate(45, 709, 602)" opacity="0.51"></rect><rect width="486" height="2" x="422" y="767" rx="1" transform="rotate(45, 665, 768)" opacity="0.31"></rect><rect width="335" height="2" x="402.5" y="114" rx="1" transform="rotate(45, 570, 115)" opacity="0.77"></rect><rect width="276" height="2" x="70" y="607" rx="1" transform="rotate(45, 208, 608)" opacity="0.26"></rect><rect width="76" height="2" x="184" y="752" rx="1" transform="rotate(45, 222, 753)" opacity="0.18"></rect><rect width="38" height="2" x="624" y="272" rx="1" transform="rotate(45, 643, 273)" opacity="0.08"></rect><rect width="381" height="2" x="56.5" y="29" rx="1" transform="rotate(45, 247, 30)" opacity="0.98"></rect><rect width="429" height="2" x="186.5" y="30" rx="1" transform="rotate(45, 401, 31)" opacity="0.52"></rect><rect width="469" height="2" x="230.5" y="620" rx="1" transform="rotate(45, 465, 621)" opacity="0.54"></rect><rect width="458" height="2" x="174" y="634" rx="1" transform="rotate(45, 403, 635)" opacity="0.12"></rect><rect width="230" height="2" x="467" y="327" rx="1" transform="rotate(45, 582, 328)" opacity="0.42"></rect><rect width="446" height="2" x="-73" y="127" rx="1" transform="rotate(45, 150, 128)" opacity="0.83"></rect><rect width="442" height="2" x="513" y="689" rx="1" transform="rotate(45, 734, 690)" opacity="0.15"></rect><rect width="158" height="2" x="693" y="260" rx="1" transform="rotate(45, 772, 261)" opacity="0.66"></rect><rect width="235" height="2" x="-103.5" y="352" rx="1" transform="rotate(45, 14, 353)" opacity="0.08"></rect><rect width="547" height="2" x="-236.5" y="29" rx="1" transform="rotate(45, 37, 30)" opacity="0.95"></rect><rect width="421" height="2" x="-119.5" y="35" rx="1" transform="rotate(45, 91, 36)" opacity="0.65"></rect><rect width="85" height="2" x="326.5" y="257" rx="1" transform="rotate(45, 369, 258)" opacity="0.55"></rect><rect width="135" height="2" x="-22.5" y="231" rx="1" transform="rotate(45, 45, 232)" opacity="0.62"></rect><rect width="264" height="2" x="-90" y="333" rx="1" transform="rotate(45, 42, 334)" opacity="0.37"></rect><rect width="23" height="2" x="764.5" y="444" rx="1" transform="rotate(45, 776, 445)" opacity="0.32"></rect><rect width="252" height="2" x="577" y="370" rx="1" transform="rotate(45, 703, 371)" opacity="0.23"></rect><rect width="30" height="2" x="741" y="134" rx="1" transform="rotate(45, 756, 135)" opacity="0.41"></rect><rect width="668" height="2" x="150" y="697" rx="1" transform="rotate(45, 484, 698)" opacity="0.45"></rect><rect width="308" height="2" x="-68" y="477" rx="1" transform="rotate(45, 86, 478)" opacity="0.73"></rect><rect width="196" height="2" x="417" y="31" rx="1" transform="rotate(45, 515, 32)" opacity="0.89"></rect><rect width="347" height="2" x="18.5" y="68" rx="1" transform="rotate(45, 192, 69)" opacity="0.99"></rect><rect width="524" height="2" x="297" y="404" rx="1" transform="rotate(45, 559, 405)" opacity="0.45"></rect><rect width="782" height="2" x="-61" y="551" rx="1" transform="rotate(45, 330, 552)" opacity="0.73"></rect><rect width="251" height="2" x="519.5" y="330" rx="1" transform="rotate(45, 645, 331)" opacity="0.66"></rect><rect width="332" height="2" x="128" y="767" rx="1" transform="rotate(45, 294, 768)" opacity="0.81"></rect><rect width="380" height="2" x="18" y="260" rx="1" transform="rotate(45, 208, 261)" opacity="0.92"></rect><rect width="393" height="2" x="-145.5" y="120" rx="1" transform="rotate(45, 51, 121)" opacity="0.46"></rect><rect width="167" height="2" x="660.5" y="104" rx="1" transform="rotate(45, 744, 105)" opacity="0.69"></rect><rect width="294" height="2" x="124" y="378" rx="1" transform="rotate(45, 271, 379)" opacity="0.50"></rect><rect width="171" height="2" x="518.5" y="36" rx="1" transform="rotate(45, 604, 37)" opacity="0.94"></rect><rect width="235" height="2" x="541.5" y="637" rx="1" transform="rotate(45, 659, 638)" opacity="0.34"></rect><rect width="383" height="2" x="197.5" y="489" rx="1" transform="rotate(45, 389, 490)" opacity="0.60"></rect><rect width="467" height="2" x="313.5" y="657" rx="1" transform="rotate(45, 547, 658)" opacity="0.69"></rect><rect width="654" height="2" x="331" y="533" rx="1" transform="rotate(45, 658, 534)" opacity="0.85"></rect><rect width="320" height="2" x="363" y="346" rx="1" transform="rotate(45, 523, 347)" opacity="0.53"></rect><rect width="463" height="2" x="-210.5" y="79" rx="1" transform="rotate(45, 21, 80)" opacity="0.62"></rect><rect width="419" height="2" x="48.5" y="104" rx="1" transform="rotate(45, 258, 105)" opacity="0.86"></rect><rect width="65" height="2" x="336.5" y="702" rx="1" transform="rotate(45, 369, 703)" opacity="0.24"></rect><rect width="32" height="2" x="591" y="217" rx="1" transform="rotate(45, 607, 218)" opacity="0.71"></rect><rect width="530" height="2" x="-146" y="356" rx="1" transform="rotate(45, 119, 357)" opacity="0.23"></rect><rect width="151" height="2" x="131.5" y="367" rx="1" transform="rotate(45, 207, 368)" opacity="0.48"></rect><rect width="504" height="2" x="225" y="530" rx="1" transform="rotate(45, 477, 531)" opacity="0.11"></rect><rect width="393" height="2" x="-161.5" y="552" rx="1" transform="rotate(45, 35, 553)" opacity="0.47"></rect><rect width="433" height="2" x="544.5" y="756" rx="1" transform="rotate(45, 761, 757)" opacity="0.10"></rect><rect width="467" height="2" x="53.5" y="462" rx="1" transform="rotate(45, 287, 463)" opacity="0.49"></rect><rect width="466" height="2" x="372" y="604" rx="1" transform="rotate(45, 605, 605)" opacity="0.54"></rect><rect width="118" height="2" x="168" y="207" rx="1" transform="rotate(45, 227, 208)" opacity="0.17"></rect><rect width="209" height="2" x="115.5" y="310" rx="1" transform="rotate(45, 220, 311)" opacity="0.52"></rect><rect width="263" height="2" x="568.5" y="308" rx="1" transform="rotate(45, 700, 309)" opacity="0.78"></rect><rect width="289" height="2" x="-35.5" y="292" rx="1" transform="rotate(45, 109, 293)" opacity="0.82"></rect><rect width="234" height="2" x="-14" y="152" rx="1" transform="rotate(45, 103, 153)" opacity="0.18"></rect><rect width="69" height="2" x="237.5" y="709" rx="1" transform="rotate(45, 272, 710)" opacity="0.45"></rect><rect width="34" height="2" x="7" y="476" rx="1" transform="rotate(45, 24, 477)" opacity="0.44"></rect><rect width="441" height="2" x="350.5" y="285" rx="1" transform="rotate(45, 571, 286)" opacity="0.45"></rect><rect width="77" height="2" x="742.5" y="35" rx="1" transform="rotate(45, 781, 36)" opacity="0.57"></rect><rect width="226" height="2" x="-11" y="196" rx="1" transform="rotate(45, 102, 197)" opacity="0.93"></rect><rect width="236" height="2" x="405" y="766" rx="1" transform="rotate(45, 523, 767)" opacity="0.80"></rect><rect width="418" height="2" x="369" y="729" rx="1" transform="rotate(45, 578, 730)" opacity="0.46"></rect><rect width="180" height="2" x="692" y="403" rx="1" transform="rotate(45, 782, 404)" opacity="0.17"></rect><rect width="478" height="2" x="61" y="307" rx="1" transform="rotate(45, 300, 308)" opacity="0.83"></rect><rect width="278" height="2" x="16" y="762" rx="1" transform="rotate(45, 155, 763)" opacity="0.83"></rect><rect width="512" height="2" x="177" y="759" rx="1" transform="rotate(45, 433, 760)" opacity="0.84"></rect><rect width="346" height="2" x="304" y="90" rx="1" transform="rotate(45, 477, 91)" opacity="0.66"></rect><rect width="310" height="2" x="335" y="181" rx="1" transform="rotate(45, 490, 182)" opacity="0.38"></rect><rect width="43" height="2" x="480.5" y="244" rx="1" transform="rotate(45, 502, 245)" opacity="0.44"></rect><rect width="334" height="2" x="523" y="155" rx="1" transform="rotate(45, 690, 156)" opacity="0.91"></rect><rect width="322" height="2" x="184" y="368" rx="1" transform="rotate(45, 345, 369)" opacity="0.91"></rect><rect width="272" height="2" x="65" y="426" rx="1" transform="rotate(45, 201, 427)" opacity="0.39"></rect><rect width="239" height="2" x="662.5" y="94" rx="1" transform="rotate(45, 782, 95)" opacity="0.82"></rect><rect width="284" height="2" x="230" y="96" rx="1" transform="rotate(45, 372, 97)" opacity="0.45"></rect><rect width="297" height="2" x="164.5" y="50" rx="1" transform="rotate(45, 313, 51)" opacity="0.66"></rect><rect width="680" height="2" x="-148" y="494" rx="1" transform="rotate(45, 192, 495)" opacity="0.89"></rect><rect width="273" height="2" x="641.5" y="356" rx="1" transform="rotate(45, 778, 357)" opacity="0.69"></rect><rect width="236" height="2" x="298" y="402" rx="1" transform="rotate(45, 416, 403)" opacity="0.51"></rect><rect width="394" height="2" x="-175" y="271" rx="1" transform="rotate(45, 22, 272)" opacity="0.77"></rect><rect width="373" height="2" x="415.5" y="364" rx="1" transform="rotate(45, 602, 365)" opacity="0.13"></rect><rect width="455" height="2" x="-12.5" y="145" rx="1" transform="rotate(45, 215, 146)" opacity="0.55"></rect><rect width="369" height="2" x="-20.5" y="338" rx="1" transform="rotate(45, 164, 339)" opacity="0.31"></rect><rect width="441" height="2" x="-101.5" y="83" rx="1" transform="rotate(45, 119, 84)" opacity="0.28"></rect><rect width="66" height="2" x="600" y="170" rx="1" transform="rotate(45, 633, 171)" opacity="0.29"></rect><rect width="50" height="2" x="404" y="215" rx="1" transform="rotate(45, 429, 216)" opacity="0.38"></rect><rect width="396" height="2" x="94" y="158" rx="1" transform="rotate(45, 292, 159)" opacity="0.15"></rect><rect width="186" height="2" x="340" y="678" rx="1" transform="rotate(45, 433, 679)" opacity="0.68"></rect><rect width="444" height="2" x="124" y="623" rx="1" transform="rotate(45, 346, 624)" opacity="0.63"></rect><rect width="555" height="2" x="-3.5" y="629" rx="1" transform="rotate(45, 274, 630)" opacity="0.32"></rect><rect width="262" height="2" x="654" y="161" rx="1" transform="rotate(45, 785, 162)" opacity="0.51"></rect><rect width="390" height="2" x="580" y="493" rx="1" transform="rotate(45, 775, 494)" opacity="0.66"></rect><rect width="218" height="2" x="45" y="22" rx="1" transform="rotate(45, 154, 23)" opacity="0.17"></rect><rect width="46" height="2" x="518" y="163" rx="1" transform="rotate(45, 541, 164)" opacity="0.64"></rect><rect width="343" height="2" x="564.5" y="17" rx="1" transform="rotate(45, 736, 18)" opacity="0.21"></rect><rect width="396" height="2" x="-122" y="325" rx="1" transform="rotate(45, 76, 326)" opacity="0.71"></rect><rect width="87" height="2" x="36.5" y="599" rx="1" transform="rotate(45, 80, 600)" opacity="0.25"></rect><rect width="108" height="2" x="487" y="568" rx="1" transform="rotate(45, 541, 569)" opacity="0.20"></rect><rect width="380" height="2" x="169" y="768" rx="1" transform="rotate(45, 359, 769)" opacity="0.67"></rect><rect width="533" height="2" x="343.5" y="467" rx="1" transform="rotate(45, 610, 468)" opacity="0.88"></rect><rect width="364" height="2" x="558" y="166" rx="1" transform="rotate(45, 740, 167)" opacity="0.85"></rect><rect width="232" height="2" x="160" y="245" rx="1" transform="rotate(45, 276, 246)" opacity="0.70"></rect><rect width="360" height="2" x="535" y="201" rx="1" transform="rotate(45, 715, 202)" opacity="0.30"></rect><rect width="430" height="2" x="-62" y="262" rx="1" transform="rotate(45, 153, 263)" opacity="0.32"></rect><rect width="265" height="2" x="333.5" y="464" rx="1" transform="rotate(45, 466, 465)" opacity="0.61"></rect><rect width="247" height="2" x="635.5" y="316" rx="1" transform="rotate(45, 759, 317)" opacity="0.72"></rect><rect width="365" height="2" x="76.5" y="520" rx="1" transform="rotate(45, 259, 521)" opacity="0.69"></rect></g></svg>